<!-- Generator: Adobe Illustrator 22.0.1, SVG Export Plug-In  -->
<svg version="1.1"
	 xmlns="http://www.w3.org/2000/svg" xmlns:xlink="http://www.w3.org/1999/xlink" xmlns:a="http://ns.adobe.com/AdobeSVGViewerExtensions/3.0/"
	 x="0px" y="0px" width="475.2px" height="361.1px" viewBox="0 0 475.2 361.1" style="enable-background:new 0 0 475.2 361.1;"
	 xml:space="preserve">
<defs>
</defs>
<path fill="#7132F5" d="M475.2,273.7c0,18.2,0.1,36.3,0,54.5c-0.1,17.3-12.5,30.9-29.6,32.7c-17.3,1.8-33.1-9.6-36.5-26.5c-0.5-2.7-0.4-5.6-0.4-8.5
	c0-31.7,0.1-63.3,0-95c-0.1-17.9-12.9-31.9-30.1-34.2c-18.7-2.5-39.2,10.6-39.3,35c0,31.8-0.4,63.7,0.1,95.5
	c0.3,19-15.6,34.3-34.9,33.6c-17.3-0.6-31.7-14.8-31.7-32.2c-0.1-32.8,0-65.7-0.1-98.5c0-16.9-13-31.5-29.3-33.4
	c-18.6-2.2-34.7,8.2-38.9,25.2c-1,4-1.1,8.3-1.2,12.4c-0.1,31-0.4,62,0,93c0.3,20.4-17,34.2-35,33.4c-17.3-0.7-31.6-15-31.7-32.3
	c-0.1-32.7,0-65.3,0-98c0-17.3-12.9-31.9-29.4-33.8c-19-2.1-34.8,8.3-38.8,25.9c-1,4.3-0.9,8.9-0.9,13.4c-0.1,30,0,60-0.1,90
	c-0.1,18.5-9.8,30.4-27.3,34.1C21.1,364.5,1.1,349.6,0.9,330c-0.4-36.3-2-72.8,0.3-109c6-93.7,53.8-159.9,138-199.9
	C176.3,3.4,216.2-2.3,256.9,0.8c97.7,7.5,180.6,72.3,208.8,164.1c6.2,20.1,9.5,40.8,9.5,61.9C475.1,242.4,475.2,258.1,475.2,273.7
	C475.2,273.7,475.2,273.7,475.2,273.7z"/>
</svg>
