<svg width="109" height="30" viewBox="0 0 109 30" fill="none" xmlns="http://www.w3.org/2000/svg">
<g clip-path="url(#clip0_170_39)">
<mask id="mask0_170_39" style="mask-type:luminance" maskUnits="userSpaceOnUse" x="0" y="0" width="141" height="30">
<path d="M140.273 0.5H0.273438V29.5H140.273V0.5Z" fill="white"/>
</mask>
<g mask="url(#mask0_170_39)">
<path fill-rule="evenodd" clip-rule="evenodd" d="M45.1016 15C45.1016 6.99277 51.7005 0.5 59.8384 0.5C67.9765 0.5 74.5752 6.99277 74.5752 15C74.5752 23.0073 67.9765 29.5 59.8384 29.5C51.7005 29.5 45.1016 23.0073 45.1016 15ZM51.9242 15C51.9242 19.3017 55.4665 22.787 59.8384 22.787C64.2103 22.787 67.7527 19.3017 67.7527 15C67.7527 10.6983 64.2103 7.21297 59.8384 7.21297C55.4665 7.21297 51.9242 10.6983 51.9242 15Z" fill="white" fill-opacity="0.98"/>
<path fill-rule="evenodd" clip-rule="evenodd" d="M79.4873 15C79.4873 6.99277 86.0861 0.5 94.2241 0.5C102.362 0.5 108.961 6.99277 108.961 15C108.961 23.0073 102.362 29.5 94.2241 29.5C86.0861 29.5 79.4873 23.0073 79.4873 15ZM86.3098 15C86.3098 19.3017 89.8522 22.787 94.2241 22.787C98.5961 22.787 102.138 19.3017 102.138 15C102.138 10.6983 98.5961 7.21297 94.2241 7.21297C89.8522 7.21297 86.3098 10.6983 86.3098 15Z" fill="white" fill-opacity="0.98"/>
<path d="M0.580078 1.03711H7.7138L13.3192 19.0708L17.1399 9.76397C17.642 8.54489 18.8428 7.75007 20.1747 7.75007H22.8928C24.23 7.75007 25.4308 8.54489 25.9274 9.76397L29.7481 19.0708L31.8494 12.3149H38.9832L34.5185 26.6807C34.0982 28.034 32.8265 28.9631 31.3855 28.9631H28.8857C27.5485 28.9631 26.3477 28.1683 25.8511 26.9492L21.5337 16.4393L17.2164 26.9492C16.7142 28.1683 15.5134 28.9631 14.1817 28.9631H11.6818C10.2409 28.9631 8.96916 28.0393 8.54889 26.6807L0.580078 1.03711Z" fill="white" fill-opacity="0.98"/>
<path d="M33.2686 7.75007L35.3534 1.03711H42.4927L40.4023 7.75007H33.2686Z" fill="white" fill-opacity="0.98"/>
</g>
</g>
<defs>
<clipPath id="clip0_170_39">
<rect width="109" height="29" fill="white" transform="translate(0 0.5)"/>
</clipPath>
</defs>
</svg>
